<svg xmlns="http://www.w3.org/2000/svg" viewBox="0 0 1360 850" width="1360" height="850" role="img" aria-labelledby="planning-a-title" data-model-sha256="ba0f5b047a04159a032d8ef40aebb042b9d12006c9a2d366dffc9109ca72eb2a" style="font-family:PingFang SC,Microsoft YaHei,sans-serif"><title id="planning-a-title">一次产品上线，两种计划视角 · planning-a</title><defs><marker id="planning-a-arrow" markerWidth="9" markerHeight="9" refX="8" refY="4" orient="auto" markerUnits="userSpaceOnUse"><path d="M1,1 L8,4 L1,7" fill="none" stroke="context-stroke" stroke-width="1.5"/></marker></defs><rect x="0" y="0" width="1360" height="850" fill="#FAF9F5" stroke="none" stroke-width="1"/><text x="56" y="51" font-size="16" fill="#5D696D" text-anchor="start" font-weight="400">EXPRESSION STUDY / PLANNING-A</text><text x="56" y="112" font-size="34" fill="#242E32" text-anchor="start" font-weight="600">时间轨道</text><text x="56" y="153" font-size="21" fill="#5D696D" text-anchor="start" font-weight="400">按真实时间排列任务，先看并行与等待；依赖通过任务编号逐项保留。</text><polyline points="56,182 1304,182" fill="none" stroke="#D7DCD7" stroke-width="1.5"/><polyline points="56,778 1304,778" fill="none" stroke="#D7DCD7" stroke-width="1.5"/><text x="56" y="818" font-size="18" fill="#5D696D" text-anchor="start" font-weight="400">0 是项目开始；条带为 [开始, 结束) 区间。这里的“前置”均为完成后开始关系；图中无实际进度数据。</text><text x="1304" y="51" font-size="16" fill="#5D696D" text-anchor="end" font-weight="400">模拟数据</text><polyline points="285,255 285,713" fill="none" stroke="#D7DCD7" stroke-width="1"/><text x="285" y="233" font-size="19" fill="#5D696D" text-anchor="middle" font-weight="400">0</text><polyline points="380,255 380,713" fill="none" stroke="#D7DCD7" stroke-width="1"/><text x="380" y="233" font-size="19" fill="#5D696D" text-anchor="middle" font-weight="400">1</text><polyline points="475,255 475,713" fill="none" stroke="#D7DCD7" stroke-width="1"/><text x="475" y="233" font-size="19" fill="#5D696D" text-anchor="middle" font-weight="400">2</text><polyline points="570,255 570,713" fill="none" stroke="#D7DCD7" stroke-width="1"/><text x="570" y="233" font-size="19" fill="#5D696D" text-anchor="middle" font-weight="400">3</text><polyline points="665,255 665,713" fill="none" stroke="#D7DCD7" stroke-width="1"/><text x="665" y="233" font-size="19" fill="#5D696D" text-anchor="middle" font-weight="400">4</text><polyline points="760,255 760,713" fill="none" stroke="#D7DCD7" stroke-width="1"/><text x="760" y="233" font-size="19" fill="#5D696D" text-anchor="middle" font-weight="400">5</text><polyline points="855,255 855,713" fill="none" stroke="#D7DCD7" stroke-width="1"/><text x="855" y="233" font-size="19" fill="#5D696D" text-anchor="middle" font-weight="400">6</text><polyline points="950,255 950,713" fill="none" stroke="#D7DCD7" stroke-width="1"/><text x="950" y="233" font-size="19" fill="#5D696D" text-anchor="middle" font-weight="400">7</text><polyline points="1045,255 1045,713" fill="none" stroke="#D7DCD7" stroke-width="1"/><text x="1045" y="233" font-size="19" fill="#5D696D" text-anchor="middle" font-weight="400">8</text><text x="1090" y="233" font-size="19" fill="#5D696D" text-anchor="start" font-weight="400">周</text><text x="1292" y="233" font-size="19" fill="#5D696D" text-anchor="end" font-weight="400">前置任务</text><text x="56" y="308" font-size="18" fill="#5D696D" text-anchor="start" font-weight="400">A</text><text x="93" y="308" font-size="23" fill="#242E32" text-anchor="start" font-weight="400">用户研究</text><rect x="285" y="286" width="190" height="28" fill="#DEE9E3" stroke="none" stroke-width="1"/><polyline points="285,286 285,314" fill="none" stroke="#286D65" stroke-width="2"/><circle cx="475" cy="300" r="6" fill="#286D65" stroke="none" stroke-width="2"/><text x="380.0" y="307" font-size="19" fill="#242E32" text-anchor="middle" font-weight="400">0–2</text><text x="1292" y="308" font-size="21" fill="#5D696D" text-anchor="end" font-weight="400">起点</text><text x="56" y="383" font-size="18" fill="#5D696D" text-anchor="start" font-weight="400">B</text><text x="93" y="383" font-size="23" fill="#242E32" text-anchor="start" font-weight="400">方案设计</text><rect x="475" y="361" width="190" height="28" fill="#DEE9E3" stroke="none" stroke-width="1"/><polyline points="475,361 475,389" fill="none" stroke="#286D65" stroke-width="2"/><circle cx="665" cy="375" r="6" fill="#286D65" stroke="none" stroke-width="2"/><text x="570.0" y="382" font-size="19" fill="#242E32" text-anchor="middle" font-weight="400">2–4</text><text x="1292" y="383" font-size="21" fill="#5D696D" text-anchor="end" font-weight="400">A</text><text x="56" y="458" font-size="18" fill="#5D696D" text-anchor="start" font-weight="400">C</text><text x="93" y="458" font-size="23" fill="#242E32" text-anchor="start" font-weight="400">内容准备</text><rect x="475" y="436" width="285" height="28" fill="#DEE9E3" stroke="none" stroke-width="1"/><polyline points="475,436 475,464" fill="none" stroke="#286D65" stroke-width="2"/><circle cx="760" cy="450" r="6" fill="#286D65" stroke="none" stroke-width="2"/><text x="617.5" y="457" font-size="19" fill="#242E32" text-anchor="middle" font-weight="400">2–5</text><text x="1292" y="458" font-size="21" fill="#5D696D" text-anchor="end" font-weight="400">A</text><text x="56" y="533" font-size="18" fill="#5D696D" text-anchor="start" font-weight="400">D</text><text x="93" y="533" font-size="23" fill="#242E32" text-anchor="start" font-weight="400">产品开发</text><rect x="665" y="511" width="190" height="28" fill="#DEE9E3" stroke="none" stroke-width="1"/><polyline points="665,511 665,539" fill="none" stroke="#286D65" stroke-width="2"/><circle cx="855" cy="525" r="6" fill="#286D65" stroke="none" stroke-width="2"/><text x="760.0" y="532" font-size="19" fill="#242E32" text-anchor="middle" font-weight="400">4–6</text><text x="1292" y="533" font-size="21" fill="#5D696D" text-anchor="end" font-weight="400">B</text><text x="56" y="608" font-size="18" fill="#5D696D" text-anchor="start" font-weight="400">E</text><text x="93" y="608" font-size="23" fill="#242E32" text-anchor="start" font-weight="400">联合验证</text><rect x="855" y="586" width="95" height="28" fill="#DEE9E3" stroke="none" stroke-width="1"/><polyline points="855,586 855,614" fill="none" stroke="#286D65" stroke-width="2"/><circle cx="950" cy="600" r="6" fill="#286D65" stroke="none" stroke-width="2"/><text x="902.5" y="607" font-size="19" fill="#242E32" text-anchor="middle" font-weight="400">6–7</text><text x="1292" y="608" font-size="21" fill="#5D696D" text-anchor="end" font-weight="400">C、D</text><text x="56" y="683" font-size="18" fill="#5D696D" text-anchor="start" font-weight="400">F</text><text x="93" y="683" font-size="23" fill="#242E32" text-anchor="start" font-weight="400">正式上线</text><rect x="950" y="661" width="95" height="28" fill="#DEE9E3" stroke="none" stroke-width="1"/><polyline points="950,661 950,689" fill="none" stroke="#286D65" stroke-width="2"/><circle cx="1045" cy="675" r="6" fill="#286D65" stroke="none" stroke-width="2"/><text x="997.5" y="682" font-size="19" fill="#242E32" text-anchor="middle" font-weight="400">7–8</text><text x="1292" y="683" font-size="21" fill="#5D696D" text-anchor="end" font-weight="400">E</text></svg>